#N canvas 511 218 1299 832 10;
#N canvas 737 173 762 726 melloSynth 0;
#X obj 261 168 hsl 128 15 0 0.9 0 0 empty empty empty -2 -8 0 10 -262144
-1 -1 4233 1;
#X obj 258 229 moses 1;
#X floatatom 266 253 5 0 0 0 - - -;
#X obj 258 324 line~;
#X obj 258 300 pack 0 100;
#X obj 258 143 inlet;
#X obj 118 145 inlet;
#X obj 118 189 mtof;
#X text 107 122 midi value;
#X text 241 119 Harmonicity-Env max-0.9;
#X obj 118 377 outlet~;
#X obj 118 341 rjlib/s_buzz;
#X connect 0 0 1 0;
#X connect 1 0 2 0;
#X connect 1 0 4 0;
#X connect 3 0 11 1;
#X connect 4 0 3 0;
#X connect 5 0 0 0;
#X connect 6 0 7 0;
#X connect 7 0 11 0;
#X connect 11 0 10 0;
#X restore 81 295 pd melloSynth;
#X text 70 29 midi value;
#X obj 81 47 inlet;
#X obj 81 114 % 127;
#X text 358 100 Harmonicity-Env max-0.9;
#X obj 271 53 inlet;
#X text 260 37 velocity;
#X obj 270 163 / 127;
#X obj 270 189 t a a;
#X obj 225 131 makenote 100 400;
#X obj 297 218 s \$0-casdr1;
#X obj 270 243 s \$0-cadsr0;
#X obj 156 243 r \$0-Harm;
#X obj 400 131 inlet;
#X obj 400 160 s \$0-Harm;
#X obj 604 108 vsl 15 128 0 300 0 0 empty empty empty 0 -9 0 10 -262144
-1 -1 4233 1;
#X obj 654 107 vsl 15 128 0 500 0 0 empty empty empty 0 -9 0 10 -262144
-1 -1 5080 1;
#X obj 700 108 vsl 15 128 0 100 0 0 empty empty empty 0 -9 0 10 -262144
-1 -1 12700 1;
#X obj 756 108 vsl 15 128 0 500 0 0 empty empty empty 0 -9 0 10 -262144
-1 -1 7620 1;
#X obj 515 202 r \$0-cadsr0;
#X obj 524 231 r \$0-cadsr1;
#X obj 140 64 bng 15 250 50 0 empty empty empty 17 7 0 10 -262144 -1
-1;
#X obj 165 79 s \$0-bangthing;
#X obj 634 40 r \$0-bangthing;
#X msg 604 74 100;
#X msg 654 75 200;
#X msg 700 75 100;
#X msg 756 73 300;
#X obj 81 396 outlet~;
#X obj 146 395 outlet~;
#N canvas 223 22 450 300 soundout 0;
#X obj 90 13 inlet~;
#X obj 91 55 *~;
#X obj 90 222 outlet~;
#X obj 160 222 outlet~;
#X obj 156 38 r~ \$0-adsrenv;
#X connect 0 0 1 0;
#X connect 1 0 2 0;
#X connect 1 0 3 0;
#X connect 4 0 1 1;
#X restore 82 342 pd soundout;
#X obj 515 309 s~ \$0-adsrenv;
#X obj 515 279 rjlib/c_adsr 1 80 100 80 200;
#X connect 0 0 30 0;
#X connect 2 0 3 0;
#X connect 2 0 21 0;
#X connect 3 0 9 0;
#X connect 3 0 0 0;
#X connect 5 0 9 1;
#X connect 7 0 8 0;
#X connect 8 0 11 0;
#X connect 8 1 10 0;
#X connect 9 1 7 0;
#X connect 12 0 0 1;
#X connect 13 0 14 0;
#X connect 15 0 32 2;
#X connect 16 0 32 3;
#X connect 17 0 32 4;
#X connect 18 0 32 5;
#X connect 19 0 32 0;
#X connect 20 0 32 1;
#X connect 21 0 22 0;
#X connect 23 0 24 0;
#X connect 23 0 25 0;
#X connect 23 0 26 0;
#X connect 23 0 27 0;
#X connect 24 0 15 0;
#X connect 25 0 16 0;
#X connect 26 0 17 0;
#X connect 27 0 18 0;
#X connect 30 0 28 0;
#X connect 30 1 29 0;
#X connect 32 0 31 0;
